<?xml version="1.0" encoding="UTF-8" standalone="no"?>
<!-- Created with Inkscape (http://www.inkscape.org/) -->

<svg
   xmlns:dc="http://purl.org/dc/elements/1.1/"
   xmlns:cc="http://creativecommons.org/ns#"
   xmlns:rdf="http://www.w3.org/1999/02/22-rdf-syntax-ns#"
   xmlns:svg="http://www.w3.org/2000/svg"
   xmlns="http://www.w3.org/2000/svg"
   xmlns:sodipodi="http://sodipodi.sourceforge.net/DTD/sodipodi-0.dtd"
   xmlns:inkscape="http://www.inkscape.org/namespaces/inkscape"
   width="241"
   height="353"
   id="svg2"
   version="1.1"
   inkscape:version="0.48.5 r10040"
   sodipodi:docname="ethereum.svg">
  <defs
     id="defs4" />
  <sodipodi:namedview
     id="base"
     pagecolor="#ffffff"
     bordercolor="#666666"
     borderopacity="1.0"
     inkscape:pageopacity="0.0"
     inkscape:pageshadow="2"
     inkscape:zoom="0.35"
     inkscape:cx="-53.07143"
     inkscape:cy="320.78575"
     inkscape:document-units="px"
     inkscape:current-layer="layer1"
     showgrid="false"
     inkscape:window-width="1366"
     inkscape:window-height="664"
     inkscape:window-x="-8"
     inkscape:window-y="-8"
     inkscape:window-maximized="1"
     fit-margin-top="0"
     fit-margin-left="0"
     fit-margin-right="0"
     fit-margin-bottom="0" />
  <metadata
     id="metadata7">
    <rdf:RDF>
      <cc:Work
         rdf:about="">
        <dc:format>image/svg+xml</dc:format>
        <dc:type
           rdf:resource="http://purl.org/dc/dcmitype/StillImage" />
        <dc:title></dc:title>
      </cc:Work>
    </rdf:RDF>
  </metadata>
  <g
     inkscape:label="Layer 1"
     inkscape:groupmode="layer"
     id="layer1"
     transform="translate(-428.07143,-524.43364)">
    <g
       id="g7046"
       transform="translate(-97.14286,-88.571427)">
      <path
         style="fill:#fefefe"
         d="m 525.21429,789.50507 0,-176.5 120.5,0 120.5,0 0,176.5 0,176.5 -120.5,0 -120.5,0 0,-176.5 z"
         id="path7062"
         inkscape:connector-curvature="0" />
      <path
         style="fill:#bbbbbb"
         d="m 640.11556,940.21948 c -3.0793,-4.24292 -15.04111,-20.76441 -26.5818,-36.71441 -11.54069,-15.95 -32.30876,-44.62558 -46.15127,-63.72351 -13.84251,-19.09792 -25.1682,-35.23357 -25.1682,-35.85698 0,-0.64736 0.71524,-0.85902 1.6677,-0.49353 0.91724,0.35198 24.0662,13.45012 51.44213,29.10699 27.37594,15.65687 50.31444,28.46703 50.97446,28.46703 0.66001,0 23.61177,-12.8298 51.0039,-28.51068 27.39214,-15.68087 50.50317,-28.77901 51.35785,-29.10699 0.85468,-0.32797 1.55396,-0.0786 1.55396,0.5541 0,0.63272 -8.69612,13.16837 -19.32472,27.85699 -30.77637,42.53266 -68.65823,94.83786 -76.55764,105.70658 -3.99741,5.5 -7.57168,10.09649 -7.94283,10.21441 -0.37114,0.11793 -3.19424,-3.25707 -6.27354,-7.5 z m 7.69422,2.63108 c 0.39777,-0.6436 0.27835,-0.88555 -0.26986,-0.54674 -1.08787,0.67234 -1.70778,-0.1486 -39.86986,-52.79875 -14.75017,-20.35 -33.29803,-45.92635 -41.21747,-56.83633 -7.91944,-10.90998 -14.19454,-20.04076 -13.94467,-20.29063 0.24987,-0.24987 2.08602,0.50842 4.08034,1.6851 1.99432,1.17668 3.62603,1.90299 3.62603,1.61403 0,-0.7147 -11.02567,-6.97984 -11.4814,-6.52411 -0.1995,0.19951 10.2395,14.98531 23.19778,32.85734 57.96789,79.94918 70.04954,96.66613 71.72583,99.2446 1.9353,2.97686 3.03779,3.40039 4.15328,1.59549 z m 3.40451,-4.84549 c 1.1749,-1.65 1.91119,-3 1.63619,-3 -0.275,0 -1.46129,1.35 -2.63619,3 -1.1749,1.65 -1.91119,3 -1.63619,3 0.275,0 1.46129,-1.35 2.63619,-3 z m 4,-5.5 c 0.68469,-0.825 1.01989,-1.5 0.74489,-1.5 -0.275,0 -1.0602,0.675 -1.74489,1.5 -0.68469,0.825 -1.01989,1.5 -0.74489,1.5 0.275,0 1.0602,-0.675 1.74489,-1.5 z m 5,-7 c 0.68469,-0.825 1.01989,-1.5 0.74489,-1.5 -0.275,0 -1.0602,0.675 -1.74489,1.5 -0.68469,0.825 -1.01989,1.5 -0.74489,1.5 0.275,0 1.0602,-0.675 1.74489,-1.5 z m 4,-5.5 c 1.1749,-1.65 1.91119,-3 1.63619,-3 -0.275,0 -1.46129,1.35 -2.63619,3 -1.1749,1.65 -1.91119,3 -1.63619,3 0.275,0 1.46129,-1.35 2.63619,-3 z m 6.95933,-9.5929 c 1.87909,-2.61658 2.98483,-4.49062 2.4572,-4.16453 -0.52764,0.3261 -2.49677,2.73374 -4.37586,5.35033 -1.87909,2.61658 -2.98483,4.49062 -2.4572,4.16453 0.52764,-0.3261 2.49677,-2.73374 4.37586,-5.35033 z m 5.04067,-6.9071 c 0.68469,-0.825 1.01989,-1.5 0.74489,-1.5 -0.275,0 -1.0602,0.675 -1.74489,1.5 -0.68469,0.825 -1.01989,1.5 -0.74489,1.5 0.275,0 1.0602,-0.675 1.74489,-1.5 z m 4,-5.5 c 1.1749,-1.65 1.91119,-3 1.63619,-3 -0.275,0 -1.46129,1.35 -2.63619,3 -1.1749,1.65 -1.91119,3 -1.63619,3 0.275,0 1.46129,-1.35 2.63619,-3 z m 9,-12.5 c 0.68469,-0.825 1.01989,-1.5 0.74489,-1.5 -0.275,0 -1.0602,0.675 -1.74489,1.5 -0.68469,0.825 -1.01989,1.5 -0.74489,1.5 0.275,0 1.0602,-0.675 1.74489,-1.5 z m 4,-5.5 c 1.1749,-1.65 1.91119,-3 1.63619,-3 -0.275,0 -1.46129,1.35 -2.63619,3 -1.1749,1.65 -1.91119,3 -1.63619,3 0.275,0 1.46129,-1.35 2.63619,-3 z m 4,-5.5 c 0.68469,-0.825 1.01989,-1.5 0.74489,-1.5 -0.275,0 -1.0602,0.675 -1.74489,1.5 -0.68469,0.825 -1.01989,1.5 -0.74489,1.5 0.275,0 1.0602,-0.675 1.74489,-1.5 z m -45.62595,-12.08549 c 2.54427,-1.42203 4.62595,-2.8105 4.62595,-3.0855 0,-0.275 -2.08168,0.66347 -4.62595,2.0855 -2.54428,1.42202 -4.96005,2.58549 -5.36838,2.58549 -0.40833,0 -18.68915,-10.27669 -40.62405,-22.83708 -44.15012,-25.28131 -44.38162,-25.41071 -44.38162,-24.80727 0,0.23431 7.5375,4.7512 16.75,10.03752 9.2125,5.28632 28,16.10301 41.75,24.03707 13.75,7.93407 25.50582,14.45802 26.12405,14.49767 0.61822,0.0396 3.20572,-1.09138 5.75,-2.5134 z m 53.62595,1.08549 c 0.68469,-0.825 1.01989,-1.5 0.74489,-1.5 -0.275,0 -1.0602,0.675 -1.74489,1.5 -0.68469,0.825 -1.01989,1.5 -0.74489,1.5 0.275,0 1.0602,-0.675 1.74489,-1.5 z m -37.5,-10.79752 c 0.55,-0.56739 -1.25,0.22726 -4,1.7659 -2.75,1.53863 -5.45,3.26174 -6,3.82914 -0.55,0.56739 1.25,-0.22726 4,-1.7659 2.75,-1.53863 5.45,-3.26174 6,-3.82914 z m 46.5,-1.70248 c 1.1749,-1.65 1.91119,-3 1.63619,-3 -0.275,0 -1.46129,1.35 -2.63619,3 -1.1749,1.65 -1.91119,3 -1.63619,3 0.275,0 1.46129,-1.35 2.63619,-3 z m -39,-2.55136 c 0,-0.275 -1.35,0.19811 -3,1.05136 -1.65,0.85325 -3,1.77636 -3,2.05136 0,0.275 1.35,-0.19811 3,-1.05136 1.65,-0.85325 3,-1.77636 3,-2.05136 z m 7,-4 c 0,-0.275 -1.35,0.19811 -3,1.05136 -1.65,0.85325 -3,1.77636 -3,2.05136 0,0.275 1.35,-0.19811 3,-1.05136 1.65,-0.85325 3,-1.77636 3,-2.05136 z m 36,1.05136 c 0.68469,-0.825 1.01989,-1.5 0.74489,-1.5 -0.275,0 -1.0602,0.675 -1.74489,1.5 -0.68469,0.825 -1.01989,1.5 -0.74489,1.5 0.275,0 1.0602,-0.675 1.74489,-1.5 z m -29,-5.05136 c 0,-0.275 -1.35,0.19811 -3,1.05136 -1.65,0.85325 -3,1.77636 -3,2.05136 0,0.275 1.35,-0.19811 3,-1.05136 1.65,-0.85325 3,-1.77636 3,-2.05136 z m 7,-4 c 0,-0.275 -1.35,0.19811 -3,1.05136 -1.65,0.85325 -3,1.77636 -3,2.05136 0,0.275 1.35,-0.19811 3,-1.05136 1.65,-0.85325 3,-1.77636 3,-2.05136 z m 27,2.05136 c 0.68469,-0.825 1.01989,-1.5 0.74489,-1.5 -0.275,0 -1.0602,0.675 -1.74489,1.5 -0.68469,0.825 -1.01989,1.5 -0.74489,1.5 0.275,0 1.0602,-0.675 1.74489,-1.5 z m -20,-6.05136 c 0,-0.275 -1.35,0.19811 -3,1.05136 -1.65,0.85325 -3,1.77636 -3,2.05136 0,0.275 1.35,-0.19811 3,-1.05136 1.65,-0.85325 3,-1.77636 3,-2.05136 z m 7,-4 c 0,-0.275 -1.35,0.19811 -3,1.05136 -1.65,0.85325 -3,1.77636 -3,2.05136 0,0.275 1.35,-0.19811 3,-1.05136 1.65,-0.85325 3,-1.77636 3,-2.05136 z m 21,-0.94864 c 0.68469,-0.825 1.01989,-1.5 0.74489,-1.5 -0.275,0 -1.0602,0.675 -1.74489,1.5 -0.68469,0.825 -1.01989,1.5 -0.74489,1.5 0.275,0 1.0602,-0.675 1.74489,-1.5 z m -16,-2.07037 c 0,-0.275 -0.9,-0.0183 -2,0.57037 -1.1,0.5887 -2,1.29537 -2,1.57037 0,0.275 0.9,0.0183 2,-0.57037 1.1,-0.5887 2,-1.29537 2,-1.57037 z m 19,-1.92963 c 0.68469,-0.825 1.01989,-1.5 0.74489,-1.5 -0.275,0 -1.0602,0.675 -1.74489,1.5 -0.68469,0.825 -1.01989,1.5 -0.74489,1.5 0.275,0 1.0602,-0.675 1.74489,-1.5 z m -10,-3.05136 c 0,-0.275 -1.35,0.19811 -3,1.05136 -1.65,0.85325 -3,1.77636 -3,2.05136 0,0.275 1.35,-0.19811 3,-1.05136 1.65,-0.85325 3,-1.77636 3,-2.05136 z m 5,-3.01901 c 0,-0.275 -0.9,-0.0183 -2,0.57037 -1.1,0.5887 -2,1.29537 -2,1.57037 0,0.275 0.9,0.0183 2,-0.57037 1.1,-0.5887 2,-1.29537 2,-1.57037 z m 10,-0.92963 c 0.68469,-0.825 1.01989,-1.5 0.74489,-1.5 -0.275,0 -1.0602,0.675 -1.74489,1.5 -0.68469,0.825 -1.01989,1.5 -0.74489,1.5 0.275,0 1.0602,-0.675 1.74489,-1.5 z m 6,-8.09106 c 0,-0.19039 -0.675,-0.0872 -1.5,0.22943 -0.825,0.31659 -1.5,1.03256 -1.5,1.59106 0,0.58531 0.63541,0.48812 1.5,-0.22943 0.825,-0.68469 1.5,-1.40067 1.5,-1.59106 z m -136.5,21.48537 c -20.35,-11.59881 -39.925,-22.7821 -43.5,-24.85176 -3.575,-2.06965 -10.2125,-5.89367 -14.75,-8.49782 -4.5375,-2.60414 -8.25,-5.15233 -8.25,-5.66263 0,-0.5103 11.0874,-18.35503 24.63868,-39.65496 13.55127,-21.29993 34.08579,-53.57714 45.63226,-71.72714 31.80677,-49.99733 32.38793,-50.88629 33.51231,-51.26108 1.13569,-0.37857 2.33505,1.4084 27.02222,40.26108 9.08629,14.3 23.12294,36.35 31.19257,49 38.85276,60.90585 46.13196,72.61001 45.79229,73.62901 -0.3344,1.00319 -102.32786,59.88208 -103.69736,59.86252 -0.32613,-0.005 -17.24297,-9.4984 -37.59297,-21.09722 z m 77.3224,-4.07241 c 21.27268,-12.19795 43.87135,-25.13545 50.21927,-28.75 l 11.54167,-6.5719 -30.04167,-47.18158 c -16.52292,-25.94987 -30.45132,-47.54987 -30.952,-48 -1.2642,-1.13657 -0.60722,-0.0442 10.93477,18.18158 28.79017,45.46208 47.47556,75.51552 47.47556,76.35933 0,0.69819 -93.66178,55.04371 -98.16992,56.96128 -0.41456,0.17634 -23.06282,-12.39259 -50.32946,-27.93095 -32.96636,-18.78644 -49.40883,-28.68647 -49.07759,-29.54968 0.54974,-1.4326 72.64802,-116.20596 84.18939,-134.02121 7.39206,-11.41039 10.41906,-16.60614 8.63329,-14.81877 -0.54951,0.55 -12.13844,18.55 -25.75317,40 -13.61473,21.45 -34.20067,53.85 -45.74653,72 -11.54587,18.15 -21.64798,34.05154 -22.44915,35.33676 -0.80117,1.28522 -1.19903,2.5944 -0.88414,2.90929 1.42088,1.42088 99.23429,57.13103 100.40968,57.18887 0.72731,0.0358 18.72731,-9.91506 40,-22.11302 z m -0.43305,-133.0719 c -3.06042,-5.2499 -10.68183,-16.75 -11.10065,-16.75 -0.2853,0 0.29351,1.2375 1.28624,2.75 0.99273,1.5125 3.56975,5.5625 5.72671,9 2.15696,3.4375 4.12304,6.25 4.36906,6.25 0.24603,0 0.11942,-0.5625 -0.28136,-1.25 z m -12.28089,-19.5 c -1.25999,-2.29229 -4.482,-6.19931 -3.50487,-4.25 1.27859,2.55067 3.60493,6 4.0466,6 0.2311,0 -0.0127,-0.7875 -0.54173,-1.75 z m -7,-11 c -1.25999,-2.29229 -4.482,-6.19931 -3.50487,-4.25 1.27859,2.55067 3.60493,6 4.0466,6 0.2311,0 -0.0127,-0.7875 -0.54173,-1.75 z m -14.10846,-22.25 c -0.5887,-1.1 -1.29537,-2 -1.57037,-2 -0.275,0 -0.0183,0.9 0.57037,2 0.5887,1.1 1.29537,2 1.57037,2 0.275,0 0.0183,-0.9 -0.57037,-2 z m -7.02224,-6.35699 c 0.0122,-0.47134 0.67432,-0.60676 1.47131,-0.30093 0.97686,0.37486 1.26468,0.0755 0.88322,-0.91853 -0.72138,-1.8799 -2.2327,-0.66534 -4.66569,3.74957 l -1.8334,3.32688 2.06117,-2.5 c 1.13363,-1.375 2.07116,-2.88564 2.08339,-3.35699 z"
         id="path7060"
         inkscape:connector-curvature="0" />
      <path
         style="fill:#989898"
         d="m 643.48401,944.30118 c -6.59617,-8.42699 -100.39567,-138.46075 -100.98373,-139.99323 -0.44568,-1.1614 -0.21159,-1.4863 0.7904,-1.09703 0.78299,0.30419 24.30946,13.63601 52.28105,29.62626 46.95225,26.84075 51.02197,28.96914 53,27.71805 4.22167,-2.67016 100.68859,-57.55016 101.16048,-57.55016 0.26514,0 0.48208,0.4177 0.48208,0.92822 0,0.64453 -100.39006,140.17788 -103.50864,143.86789 -0.13764,0.16287 -1.58738,-1.41213 -3.22164,-3.5 z m 13.44556,-14.04611 c 5.48093,-7.5625 27.20525,-37.6 48.27626,-66.75 21.07101,-29.15 38.80538,-53.64888 39.4097,-54.44196 0.60432,-0.79308 0.64876,-1.20009 0.0988,-0.90447 -0.55,0.29561 -22.92566,13.036 -49.72369,28.31196 l -48.72373,27.77447 -48.68759,-27.87 c -26.77818,-15.3285 -49.17499,-28.05666 -49.7707,-28.28479 -0.5957,-0.22814 0.0833,1.12186 1.50891,3 2.46064,3.24172 27.00388,37.10896 74.76248,103.16479 11.83015,16.3625 21.81871,29.75 22.1968,29.75 0.37809,0 5.17183,-6.1875 10.65276,-13.75 z m -10.47738,-26.22945 0.2621,-38.43221 15,-8.60721 c 8.25,-4.73396 25.8,-14.8407 39,-22.45941 38.70726,-22.34086 40.7712,-23.52172 41.11202,-23.52172 0.17877,0 -5.19549,7.5375 -11.94279,16.75 -6.74731,9.2125 -27.72008,38.125 -46.60617,64.25 -18.88608,26.125 -34.95684,48.16437 -35.71279,48.97638 -1.16739,1.25396 -1.33498,-4.31368 -1.11237,-36.95583 z M 593.92516,821.304 c -28.48402,-16.30974 -51.65902,-30.14827 -51.5,-30.75228 0.54991,-2.08875 103.05461,-162.54665 103.83904,-162.54665 0.85942,0 103.95009,161.57164 103.95009,162.91858 0,0.73409 -99.80625,58.35379 -103.15437,59.55261 -0.7401,0.265 -24.65074,-12.86252 -53.13476,-29.17226 z m 153.473,-31.84094 C 739.6927,776.7522 647.73118,633.15484 647.46617,633.41985 c -0.20659,0.2066 13.75175,22.81029 31.01854,50.23043 54.83847,87.085 66.93106,106.48721 66.57599,106.81923 -1.32988,1.24359 -98.44646,55.98777 -99.0042,55.80823 -1.90345,-0.61274 -97.83949,-55.75587 -97.82217,-56.22726 0.011,-0.29998 22.06103,-10.19377 49,-21.98622 l 48.97996,-21.44081 0,-56.2274 c 0,-30.92507 0.27314,-56.93921 0.60699,-57.80919 2.46947,-6.43533 -5.97445,6.21014 -40.10699,60.06361 -21.45,33.84327 -44.22241,69.70553 -50.60536,79.69391 -7.33453,11.47747 -11.19857,18.40833 -10.5,18.83361 0.60795,0.37011 23.51544,13.47172 50.90554,29.1147 l 49.80019,28.44179 50.88369,-29.07166 c 32.55486,-18.59974 50.63735,-29.47801 50.19981,-30.19976 z"
         id="path7058"
         inkscape:connector-curvature="0" />
      <path
         style="fill:#8e8e8e"
         d="m 594.24721,876.43344 c -28.1526,-38.86583 -51.42513,-71.28687 -51.71672,-72.04676 -0.2916,-0.75988 -0.25247,-1.38161 0.087,-1.38161 0.33942,0 23.80807,13.25679 52.15255,29.45953 l 51.53543,29.45952 51.57267,-29.50795 c 28.36498,-16.22938 51.81935,-29.26128 52.12084,-28.95979 0.72056,0.72056 0.84214,0.54894 -54.52499,76.96596 -26.26781,36.2545 -48.27277,66.08804 -48.89992,66.29676 -0.62714,0.20871 -24.17421,-31.41983 -52.32681,-70.28566 z m 102.00659,-0.44206 c 26.85909,-37.09498 48.71038,-67.56975 48.55842,-67.72171 -0.15196,-0.15196 -22.38577,12.36692 -49.40847,27.81973 l -49.13217,28.09603 -49.17806,-28.10744 c -27.04793,-15.45909 -49.30061,-27.98487 -49.45041,-27.83507 -0.1498,0.1498 1.87828,3.19507 4.50685,6.76726 2.62857,3.57219 16.16843,22.24489 30.08859,41.49489 54.26401,75.04102 63.45413,87.5072 64.30222,87.22451 0.48308,-0.16103 22.85394,-30.64322 49.71303,-67.7382 z m -50.03951,28.27323 0,-38.0738 46.98574,-27.09287 c 25.84216,-14.90108 47.1922,-27.09287 47.44454,-27.09287 0.37398,0 -92.64169,128.53432 -94.01603,129.91667 -0.22784,0.22916 -0.41425,-16.71654 -0.41425,-37.65713 z m -52.25,-83.0074 c -28.4625,-16.30558 -51.75,-29.90499 -51.75,-30.22092 0,-1.06009 103.0188,-162.52759 103.88188,-162.82026 0.80578,-0.27324 103.28991,159.78936 103.91066,162.29059 0.22924,0.92369 -102.45178,60.64926 -103.92264,60.44778 -0.20345,-0.0279 -23.6574,-13.3916 -52.1199,-29.69719 z m 103.55154,-1.71478 50.62559,-28.96265 -1.71356,-2.67843 c -0.94247,-1.47314 -23.76357,-37.37067 -50.71357,-79.77227 -26.95,-42.40161 -49.225,-77.0807 -49.5,-77.06463 -0.275,0.0161 -21.65,33.34125 -47.5,74.05596 -25.85,40.71472 -48.64561,76.61173 -50.6569,79.77114 l -3.65691,5.74438 50.65691,29.06258 c 27.86129,15.98443 50.92149,29.00498 51.24487,28.93457 0.32339,-0.0704 23.36949,-13.1612 51.21357,-29.09065 z m -51.58797,-22.86075 c 0.11746,-27.12774 0.46258,-49.97208 0.76694,-50.76521 0.30435,-0.79313 0.43324,-26.27534 0.28643,-56.62713 -0.14682,-30.35179 0.0206,-54.86989 0.37201,-54.48467 0.7968,0.87345 27.65994,43.50271 65.34755,103.7004 15.83942,25.3 29.68381,47.26341 30.76531,48.80758 1.08151,1.54416 1.80478,2.93232 1.60728,3.0848 -1.73371,1.33849 -97.88145,55.60759 -98.51896,55.6075 -0.46207,-6e-5 -0.74402,-22.19554 -0.62656,-49.32327 z m -12.46357,42.21879 c -2.8875,-1.68327 -5.25,-3.2911 -5.25,-3.57296 0,-0.55521 8.89331,4.38974 10.45,5.81051 1.69468,1.54671 0.15535,0.88434 -5.2,-2.23755 z m -14,-8 c -2.8875,-1.68327 -5.25,-3.2911 -5.25,-3.57296 0,-0.55521 8.89331,4.38974 10.45,5.81051 1.69468,1.54671 0.15535,0.88434 -5.2,-2.23755 z m -14.50926,-8.26921 c -4.80344,-2.95339 -6.14479,-4.34792 -2.24074,-2.32958 3.13456,1.62053 7.36317,4.63935 6.5,4.64038 -0.275,3.2e-4 -2.19167,-1.03953 -4.25926,-2.3108 z m -15.00123,-8.5204 c -6.08945,-3.57327 -7.44146,-4.96602 -2.23951,-2.30699 3.8618,1.974 8.52548,5.15712 7.5,5.11901 -0.275,-0.0102 -2.64222,-1.27563 -5.26049,-2.81202 z m -11.29838,-6.66096 c -1.86403,-1.49339 -1.85176,-1.51185 0.30887,-0.46481 1.2375,0.59969 2.25,1.29951 2.25,1.55516 0,0.76522 -0.51861,0.54424 -2.55887,-1.09035 z m -5.69113,-3.0168 c -3.73844,-2.02814 -3.51088,-2.87286 0.25,-0.92803 1.65,0.85325 3,1.7648 3,2.02568 0,0.6435 -0.10745,0.60721 -3.25,-1.09765 z m -11.5,-6.53263 c -2.8875,-1.68327 -5.25,-3.25749 -5.25,-3.49827 0,-0.60535 7.05592,3.10293 9.5,4.99278 3.13882,2.42707 1.47116,1.84063 -4.25,-1.49451 z m -12.08385,-6.77155 c -1.09769,-0.69583 -1.08293,-0.94181 0.0833,-1.38935 0.8084,-0.31021 1.41718,0.0596 1.41718,0.86084 0,0.77256 -0.0375,1.39777 -0.0833,1.38935 -0.0458,-0.008 -0.68356,-0.3958 -1.41718,-0.86084 z"
         id="path7056"
         inkscape:connector-curvature="0" />
      <path
         style="fill:#898989"
         d="m 595.62356,878.25507 c -27.36913,-37.8125 -50.66322,-69.98197 -51.76463,-71.4877 -1.10141,-1.50574 -1.74725,-2.99303 -1.43518,-3.30509 0.31206,-0.31207 23.81576,12.7222 52.23044,28.96505 l 51.66306,29.53244 51.54626,-29.47735 c 28.35044,-16.21254 51.77542,-29.47735 52.05551,-29.47735 1.27066,0 -1.59728,4.41215 -13.55552,20.85439 -7.0584,9.70508 -24.22554,33.39561 -38.14921,52.64561 -44.55996,61.60584 -51.1179,70.5 -51.98184,70.5 -0.46575,0 -23.23976,-30.9375 -50.60889,-68.75 z m 95.6136,4.75 c 22.88938,-31.625 44.67585,-61.73183 48.4144,-66.90406 6.31295,-8.73391 6.55738,-9.25849 3.43004,-7.36135 -1.85202,1.12348 -24.40441,14.05125 -50.11643,28.72837 l -46.74912,26.68566 -49.15029,-28.09156 c -27.03266,-15.45037 -49.26879,-27.97131 -49.41361,-27.82432 -0.2457,0.24937 12.14425,17.45576 74.23697,103.09563 24.23633,33.42737 24.54607,33.80078 26.12904,31.5 0.88108,-1.2806 20.32963,-28.20337 43.219,-59.82837 z m -44.84795,21.26317 c 0.20627,-24.26222 0.69056,-38.37814 1.32508,-38.62349 0.66105,-0.25561 0.83053,12.0267 0.5,36.23683 -0.275,20.14292 -0.46238,36.73611 -0.4164,36.87376 0.046,0.13764 1.79705,-2.23759 3.89126,-5.27829 2.09421,-3.0407 4.26867,-5.81347 4.83213,-6.16171 0.92925,-0.57431 -7.41384,11.81532 -9.55528,14.18973 -0.53694,0.59536 -0.77033,-14.47215 -0.57679,-37.23683 z m 15.82508,14.73683 c 1.1749,-1.65 2.36119,-3 2.63619,-3 0.275,0 -0.46129,1.35 -1.63619,3 -1.1749,1.65 -2.36119,3 -2.63619,3 -0.275,0 0.46129,-1.35 1.63619,-3 z m 4.8079,-6.5 c 0.579,-1.1 2.47473,-3.575 4.21273,-5.5 l 3.16,-3.5 -3.26825,4.5 c -4.0022,5.51056 -5.50176,7.15462 -4.10448,4.5 z m 11.1921,-15.5 c 1.1749,-1.65 2.36119,-3 2.63619,-3 0.275,0 -0.46129,1.35 -1.63619,3 -1.1749,1.65 -2.36119,3 -2.63619,3 -0.275,0 0.46129,-1.35 1.63619,-3 z m 7.97847,-10.96976 c 1.16306,-1.63337 2.62534,-3.28538 3.24952,-3.67115 0.62418,-0.38576 -0.12518,0.95063 -1.66525,2.96976 -3.34267,4.38248 -4.60263,4.94029 -1.58427,0.70139 z m 10.01844,-13.78024 c 1.30856,-1.7875 2.53541,-3.25 2.72633,-3.25 0.75941,0 -1.72001,3.75054 -3.35979,5.08224 -1.08027,0.87731 -0.83879,0.17886 0.63346,-1.83224 z m -45.99691,-7.67963 c 0,-0.275 0.9,-0.98167 2,-1.57037 1.1,-0.5887 2,-0.84537 2,-0.57037 0,0.275 -0.9,0.98167 -2,1.57037 -1.1,0.5887 -2,0.84537 -2,0.57037 z m 53.97847,-3.54013 c 1.16306,-1.63337 2.62534,-3.28538 3.24952,-3.67115 0.62418,-0.38576 -0.12518,0.95063 -1.66525,2.96976 -3.34267,4.38248 -4.60263,4.94029 -1.58427,0.70139 z m -41.47847,-3.73272 c 0.55,-0.5674 3.25,-2.29051 6,-3.82914 2.75,-1.53864 4.55,-2.33329 4,-1.7659 -0.55,0.5674 -3.25,2.29051 -6,3.82914 -2.75,1.53864 -4.55,2.33329 -4,1.7659 z m 46.41022,-3.12976 c 0.53932,-1.00774 1.76617,-2.47024 2.72633,-3.25 1.08027,-0.87731 0.83879,-0.17886 -0.63346,1.83224 -2.62646,3.58775 -3.61124,4.25486 -2.09287,1.41776 z m -32.91022,-4.59739 c 0,-0.275 0.9,-0.98167 2,-1.57037 1.1,-0.5887 2,-0.84537 2,-0.57037 0,0.275 -0.9,0.98167 -2,1.57037 -1.1,0.5887 -2,0.84537 -2,0.57037 z m 38,-2.07037 c 0.68469,-0.825 1.46989,-1.5 1.74489,-1.5 0.275,0 -0.0602,0.675 -0.74489,1.5 -0.68469,0.825 -1.46989,1.5 -1.74489,1.5 -0.275,0 0.0602,-0.675 0.74489,-1.5 z m -33,-0.92963 c 0,-0.275 0.9,-0.98167 2,-1.57037 1.1,-0.5887 2,-0.84537 2,-0.57037 0,0.275 -0.9,0.98167 -2,1.57037 -1.1,0.5887 -2,0.84537 -2,0.57037 z m 38.97847,-7.54013 c 1.16306,-1.63337 2.62534,-3.28538 3.24952,-3.67115 0.62418,-0.38576 -0.12518,0.95063 -1.66525,2.96976 -3.34267,4.38248 -4.60263,4.94029 -1.58427,0.70139 z m -26.97847,0.52112 c 0,-0.275 1.35,-1.19811 3,-2.05136 1.65,-0.85325 3,-1.32636 3,-1.05136 0,0.275 -1.35,1.19811 -3,2.05136 -1.65,0.85325 -3,1.32636 -3,1.05136 z m 14,-7.98099 c 0,-0.275 0.9,-0.98167 2,-1.57037 1.1,-0.5887 2,-0.84537 2,-0.57037 0,0.275 -0.9,0.98167 -2,1.57037 -1.1,0.5887 -2,0.84537 -2,0.57037 z m 20.97847,-3.54013 c 1.16306,-1.63337 2.62534,-3.28538 3.24952,-3.67115 0.62418,-0.38576 -0.12518,0.95063 -1.66525,2.96976 -3.34267,4.38248 -4.60263,4.94029 -1.58427,0.70139 z m -15.97847,0.54013 c 0,-0.275 0.9,-0.98167 2,-1.57037 1.1,-0.5887 2,-0.84537 2,-0.57037 0,0.275 -0.9,0.98167 -2,1.57037 -1.1,0.5887 -2,0.84537 -2,0.57037 z m 9,-5 c 0,-0.275 0.9,-0.98167 2,-1.57037 1.1,-0.5887 2,-0.84537 2,-0.57037 0,0.275 -0.9,0.98167 -2,1.57037 -1.1,0.5887 -2,0.84537 -2,0.57037 z m 5,-3 c 0,-0.275 0.9,-0.98167 2,-1.57037 1.1,-0.5887 2,-0.84537 2,-0.57037 0,0.275 -0.9,0.98167 -2,1.57037 -1.1,0.5887 -2,0.84537 -2,0.57037 z m 9.28509,-2.17611 c 0.43179,-0.65106 0.65679,-1.56861 0.5,-2.039 -0.1568,-0.47039 0.033,-0.85526 0.42186,-0.85526 0.38883,0 1.38702,-0.9 2.2182,-2 0.83118,-1.1 1.51345,-1.55 1.51615,-1 0.003,0.55 -1.2205,2.36755 -2.7182,4.039 -1.49771,1.67145 -2.36981,2.50632 -1.93801,1.85526 z m -141.53509,2.83172 c -28.4625,-16.3097 -51.75,-29.9024 -51.75,-30.20601 0,-1.00324 103.04953,-162.51404 103.87173,-162.79945 0.73509,-0.25516 102.27855,158.40156 103.62373,161.90705 0.44373,1.15633 -11.81242,8.60636 -51.32059,31.19578 -28.54695,16.32216 -52.07709,29.64964 -52.28921,29.61663 -0.21211,-0.033 -23.67316,-13.40431 -52.13566,-29.714 z M 697.519,819.57613 c 34.05278,-19.47076 50.36567,-29.32028 49.89484,-30.12587 -4.10943,-7.03122 -100.82907,-158.41285 -101.19955,-158.3934 -0.37479,0.0197 -82.01716,127.96293 -99.1396,155.36349 l -2.6396,4.22408 50.6396,29.06539 c 27.85178,15.98596 50.91192,29.00461 51.24476,28.93032 0.33284,-0.0743 23.37264,-13.15309 51.19955,-29.06401 z m -51.30471,-22.90439 c 0,-27.13334 0.2495,-49.58284 0.55445,-49.88778 0.30494,-0.30495 3.11744,0.65954 6.25,2.1433 3.13255,1.48377 25.1452,11.21755 48.91699,21.63063 32.5945,14.27781 42.92112,19.20761 42,20.05025 -1.30481,1.19365 -96.46128,55.39693 -97.25198,55.39693 -0.2582,0 -0.46946,-22.2 -0.46946,-49.33333 z m 91.79276,-15.91667 c -2.39445,-3.74847 -3.03986,-5.36993 -1.29364,-3.25 1.95165,2.36933 3.74528,5.5 3.15107,5.5 -0.23109,0 -1.06694,-1.0125 -1.85743,-2.25 z m -15.01394,-24 c -0.79817,-1.2375 -2.25332,-3.6 -3.23368,-5.25 l -1.78248,-3 2.01172,2.43395 c 2.37669,2.87551 5.52804,8.06605 4.89717,8.06605 -0.24284,0 -1.09457,-1.0125 -1.89273,-2.25 z m -9.98606,-16 c -2.39445,-3.74847 -3.03986,-5.36993 -1.29364,-3.25 1.95165,2.36933 3.74528,5.5 3.15107,5.5 -0.23109,0 -1.06694,-1.0125 -1.85743,-2.25 z m -7,-11 c -2.39445,-3.74847 -3.03986,-5.36993 -1.29364,-3.25 1.95165,2.36933 3.74528,5.5 3.15107,5.5 -0.23109,0 -1.06694,-1.0125 -1.85743,-2.25 z m -10,-16 c -2.39445,-3.74847 -3.03986,-5.36993 -1.29364,-3.25 1.95165,2.36933 3.74528,5.5 3.15107,5.5 -0.23109,0 -1.06694,-1.0125 -1.85743,-2.25 z m -7.48033,-12 c -2.30348,-3.08793 -4.42765,-6.93925 -3.51682,-6.37632 0.55169,0.34096 1.93319,2.19637 3.07,4.12313 2.02975,3.44016 2.28231,4.71374 0.44682,2.25319 z m -7.53361,-12 c -0.79817,-1.2375 -2.25332,-3.6 -3.23368,-5.25 l -1.78248,-3 2.01172,2.43395 c 2.37669,2.87551 5.52804,8.06605 4.89717,8.06605 -0.24284,0 -1.09457,-1.0125 -1.89273,-2.25 z m -18.54676,-29.5 c -2.58892,-3.73899 -3.43047,-5.25 -2.92396,-5.25 0.23437,0 1.61731,1.8 3.0732,4 2.95891,4.47122 2.82982,5.55245 -0.14924,1.25 z m -12.23206,-19.25 c -0.5887,-1.1 -0.84537,-2 -0.57037,-2 0.275,0 0.98167,0.9 1.57037,2 0.5887,1.1 0.84537,2 0.57037,2 -0.275,0 -0.98167,-0.9 -1.57037,-2 z m -2.54112,-4.06653 c -0.36253,-0.58659 -0.44468,-1.281 -0.18255,-1.54313 0.26212,-0.26213 0.74306,0.21781 1.06875,1.06653 0.67618,1.76211 0.0999,2.07206 -0.8862,0.4766 z"
         id="path7054"
         inkscape:connector-curvature="0" />
      <path
         style="fill:#797979"
         d="m 637.66478,936.29114 c -4.30818,-5.93234 -17.11832,-23.61107 -28.46697,-39.28607 -11.34865,-15.675 -30.89221,-42.66808 -43.43013,-59.98462 -21.79,-30.0949 -24.46577,-34.01538 -23.21586,-34.01538 0.30334,0 23.75297,13.27676 52.1103,29.50391 l 51.55878,29.5039 51.61306,-29.5039 c 28.38719,-16.22715 51.83384,-29.50391 52.10369,-29.50391 1.28397,0 -2.14526,5.06999 -21.15352,31.27466 -11.2607,15.52394 -34.13711,47.09752 -50.83646,70.16352 -16.69936,23.066 -30.83213,42.09474 -31.40615,42.28608 -0.57402,0.19134 -4.56855,-4.50585 -8.87674,-10.43819 z M 745.57469,808.04869 c 0.67865,-0.86729 -0.2761,-0.60896 -2.3604,0.63865 -1.925,1.15226 -24.54288,14.10687 -50.26195,28.78802 l -46.76195,26.693 -49.10872,-28.12764 c -27.0098,-15.4702 -49.2454,-27.99096 -49.41245,-27.82392 -0.16705,0.16705 20.39771,28.87525 45.69946,63.796 25.30175,34.92075 47.55965,65.65437 49.46201,68.29694 l 3.45883,4.80467 49.07278,-67.80467 c 26.99004,-37.29257 49.58561,-68.46004 50.21239,-69.26105 z m -151.62872,13.16399 c -31.96168,-18.31805 -51.59041,-30.13338 -51.30331,-30.88154 0.91026,-2.3721 102.6765,-161.83113 103.45521,-162.10552 0.72097,-0.25403 102.29117,158.4653 103.61453,161.91392 0.4229,1.10207 -12.66927,9.02994 -51.47737,31.17174 -28.62448,16.33159 -52.15167,29.66619 -52.28263,29.63246 -0.13096,-0.0337 -23.53385,-13.41271 -52.00643,-29.73106 z m 103.59099,-1.61911 c 34.76279,-19.86413 50.37398,-29.29523 49.88664,-30.13775 -3.70873,-6.41161 -100.83341,-158.43637 -101.20931,-158.41823 -0.275,0.0133 -22.55,34.72007 -49.5,77.12623 -26.95,42.40616 -49.77554,78.30473 -50.72342,79.7746 l -1.72342,2.67249 50.72342,29.0993 c 27.89788,16.00462 50.99943,29.0308 51.33678,28.94708 0.33735,-0.0837 23.38154,-13.16239 51.20931,-29.06372 z m -51.32267,-23.1218 c 0,-46.86762 0.0997,-49.6699 1.75,-49.17238 3.80753,1.14788 96.25,42.20145 96.25,42.74449 0,0.48564 -94.5446,54.78994 -97.13911,55.79452 -0.47411,0.18358 -0.86089,-21.99581 -0.86089,-49.36663 z"
         id="path7052"
         inkscape:connector-curvature="0" />
      <path
         style="fill:#5f5f5f"
         d="m 596.12982,878.8106 c -55.59932,-76.72824 -54.23743,-74.81696 -53.69647,-75.35792 0.21827,-0.21827 23.66886,12.89225 52.11244,29.13448 l 51.71559,29.53133 51.67591,-29.52392 c 28.42175,-16.23816 51.87528,-29.32455 52.11895,-29.08088 0.24368,0.24368 0.008,1.01642 -0.52464,1.71721 -0.53222,0.7008 -23.82105,32.88667 -51.75294,71.52417 -27.9319,38.6375 -51.11108,70.25 -51.50929,70.25 -0.39821,0 -22.96101,-30.68751 -50.13955,-68.19447 z m 96.58447,2.51031 c 56.62224,-78.30356 54.13262,-74.81905 52.96537,-74.13119 -0.53095,0.31289 -23.11641,13.22091 -50.18989,28.68449 l -49.22453,28.11559 -47.77547,-27.32524 c -26.27652,-15.02889 -48.8684,-27.90932 -50.20419,-28.62319 l -2.4287,-1.29795 2.12468,2.88083 c 1.16857,1.58445 23.63649,32.66693 49.9287,69.07218 26.29222,36.40524 48.02903,66.20194 48.30403,66.21489 0.275,0.0129 21.2,-28.60274 46.5,-63.59041 z m -98,-59.84921 c -28.05,-16.13756 -51.42238,-29.51007 -51.93862,-29.7167 -0.88401,-0.35382 102.33951,-163.70897 103.46474,-163.73688 0.53752,-0.0133 102.72448,160.17064 103.54272,162.30921 0.26895,0.7029 -20.35722,13.07142 -51.15927,30.67774 -28.38545,16.225 -51.90233,29.56922 -52.25974,29.65383 -0.35741,0.0846 -23.59983,-13.04964 -51.64983,-29.1872 z m 101.82918,-1.11176 c 27.59395,-15.75481 50.50796,-28.93945 50.92001,-29.29919 0.72364,-0.63176 -99.5952,-159.30063 -101.03696,-159.80468 -0.65763,-0.22991 -100.94694,156.67662 -101.47619,158.76346 -0.17377,0.68519 99.12419,58.56397 101.09314,58.92516 0.18105,0.0332 22.90605,-12.82993 50.5,-28.58475 z"
         id="path7050"
         inkscape:connector-curvature="0" />
      <path
         style="fill:#515151"
         d="m 644.62483,944.77843 c -1.54654,-1.81233 -1.57712,-1.98069 -0.16054,-0.88368 1.47369,1.14123 2.02631,1.13851 3.5,-0.0172 1.61876,-1.26951 1.63998,-1.22245 0.28297,0.62756 -0.80687,1.1 -1.52213,2.11526 -1.58947,2.25613 -0.0673,0.14087 -0.98217,-0.75137 -2.03296,-1.98277 z m -4.41054,-5.77336 c -1.1749,-1.65 -1.91119,-3 -1.63619,-3 0.275,0 1.46129,1.35 2.63619,3 1.1749,1.65 1.91119,3 1.63619,3 -0.275,0 -1.46129,-1.35 -2.63619,-3 z m 10,1.5 c 0.68469,-0.825 1.46989,-1.5 1.74489,-1.5 0.275,0 -0.0602,0.675 -0.74489,1.5 -0.68469,0.825 -1.46989,1.5 -1.74489,1.5 -0.275,0 0.0602,-0.675 0.74489,-1.5 z m 4,-5.5 c 1.1749,-1.65 2.36119,-3 2.63619,-3 0.275,0 -0.46129,1.35 -1.63619,3 -1.1749,1.65 -2.36119,3 -2.63619,3 -0.275,0 0.46129,-1.35 1.63619,-3 z m -19,-3 c -1.1749,-1.65 -1.91119,-3 -1.63619,-3 0.275,0 1.46129,1.35 2.63619,3 1.1749,1.65 1.91119,3 1.63619,3 -0.275,0 -1.46129,-1.35 -2.63619,-3 z m 23,-2.5 c 0.68469,-0.825 1.46989,-1.5 1.74489,-1.5 0.275,0 -0.0602,0.675 -0.74489,1.5 -0.68469,0.825 -1.46989,1.5 -1.74489,1.5 -0.275,0 0.0602,-0.675 0.74489,-1.5 z m -27.12756,-3.25 c -1.24387,-1.58606 -1.2085,-1.62143 0.37756,-0.37756 0.9625,0.75485 1.75,1.54235 1.75,1.75 0,0.82304 -0.82119,0.29331 -2.12756,-1.37244 z m -3.87244,-5.25 c -1.1749,-1.65 -1.91119,-3 -1.63619,-3 0.275,0 1.46129,1.35 2.63619,3 1.1749,1.65 1.91119,3 1.63619,3 -0.275,0 -1.46129,-1.35 -2.63619,-3 z m 36,1.5 c 0.68469,-0.825 1.46989,-1.5 1.74489,-1.5 0.275,0 -0.0602,0.675 -0.74489,1.5 -0.68469,0.825 -1.46989,1.5 -1.74489,1.5 -0.275,0 0.0602,-0.675 0.74489,-1.5 z m 3,-4 c 0.68469,-0.825 1.46989,-1.5 1.74489,-1.5 0.275,0 -0.0602,0.675 -0.74489,1.5 -0.68469,0.825 -1.46989,1.5 -1.74489,1.5 -0.275,0 0.0602,-0.675 0.74489,-1.5 z m -43.12756,-3.25 c -1.24387,-1.58606 -1.2085,-1.62143 0.37756,-0.37756 0.9625,0.75485 1.75,1.54235 1.75,1.75 0,0.82304 -0.82119,0.29331 -2.12756,-1.37244 z m -3.87244,-5.25 c -1.1749,-1.65 -1.91119,-3 -1.63619,-3 0.275,0 1.46129,1.35 2.63619,3 1.1749,1.65 1.91119,3 1.63619,3 -0.275,0 -1.46129,-1.35 -2.63619,-3 z m 52,1.5 c 0.68469,-0.825 1.46989,-1.5 1.74489,-1.5 0.275,0 -0.0602,0.675 -0.74489,1.5 -0.68469,0.825 -1.46989,1.5 -1.74489,1.5 -0.275,0 0.0602,-0.675 0.74489,-1.5 z m 4,-5.5 c 1.1749,-1.65 2.36119,-3 2.63619,-3 0.275,0 -0.46129,1.35 -1.63619,3 -1.1749,1.65 -2.36119,3 -2.63619,3 -0.275,0 0.46129,-1.35 1.63619,-3 z m -61,-3 c -1.1749,-1.65 -1.91119,-3 -1.63619,-3 0.275,0 1.46129,1.35 2.63619,3 1.1749,1.65 1.91119,3 1.63619,3 -0.275,0 -1.46129,-1.35 -2.63619,-3 z m 65,-2.5 c 0.68469,-0.825 1.46989,-1.5 1.74489,-1.5 0.275,0 -0.0602,0.675 -0.74489,1.5 -0.68469,0.825 -1.46989,1.5 -1.74489,1.5 -0.275,0 0.0602,-0.675 0.74489,-1.5 z m -69.12756,-3.25 c -1.24387,-1.58606 -1.2085,-1.62143 0.37756,-0.37756 0.9625,0.75485 1.75,1.54235 1.75,1.75 0,0.82304 -0.82119,0.29331 -2.12756,-1.37244 z m -3.87244,-5.25 c -1.1749,-1.65 -1.91119,-3 -1.63619,-3 0.275,0 1.46129,1.35 2.63619,3 1.1749,1.65 1.91119,3 1.63619,3 -0.275,0 -1.46129,-1.35 -2.63619,-3 z m 78,1.5 c 0.68469,-0.825 1.46989,-1.5 1.74489,-1.5 0.275,0 -0.0602,0.675 -0.74489,1.5 -0.68469,0.825 -1.46989,1.5 -1.74489,1.5 -0.275,0 0.0602,-0.675 0.74489,-1.5 z m 4,-5.5 c 1.1749,-1.65 2.36119,-3 2.63619,-3 0.275,0 -0.46129,1.35 -1.63619,3 -1.1749,1.65 -2.36119,3 -2.63619,3 -0.275,0 0.46129,-1.35 1.63619,-3 z m -86.12756,-1.75 c -1.24387,-1.58606 -1.2085,-1.62143 0.37756,-0.37756 0.9625,0.75485 1.75,1.54235 1.75,1.75 0,0.82304 -0.82119,0.29331 -2.12756,-1.37244 z m -3.87244,-5.25 c -1.1749,-1.65 -1.91119,-3 -1.63619,-3 0.275,0 1.46129,1.35 2.63619,3 1.1749,1.65 1.91119,3 1.63619,3 -0.275,0 -1.46129,-1.35 -2.63619,-3 z m 94,1.5 c 0.68469,-0.825 1.46989,-1.5 1.74489,-1.5 0.275,0 -0.0602,0.675 -0.74489,1.5 -0.68469,0.825 -1.46989,1.5 -1.74489,1.5 -0.275,0 0.0602,-0.675 0.74489,-1.5 z m 4,-5.5 c 1.1749,-1.65 2.36119,-3 2.63619,-3 0.275,0 -0.46129,1.35 -1.63619,3 -1.1749,1.65 -2.36119,3 -2.63619,3 -0.275,0 0.46129,-1.35 1.63619,-3 z m -102.12756,-1.75 c -1.24387,-1.58606 -1.2085,-1.62143 0.37756,-0.37756 0.9625,0.75485 1.75,1.54235 1.75,1.75 0,0.82304 -0.82119,0.29331 -2.12756,-1.37244 z m 106.12756,-3.75 c 0.68469,-0.825 1.46989,-1.5 1.74489,-1.5 0.275,0 -0.0602,0.675 -0.74489,1.5 -0.68469,0.825 -1.46989,1.5 -1.74489,1.5 -0.275,0 0.0602,-0.675 0.74489,-1.5 z m -111.12756,-3.25 c -1.24387,-1.58606 -1.2085,-1.62143 0.37756,-0.37756 0.9625,0.75485 1.75,1.54235 1.75,1.75 0,0.82304 -0.82119,0.29331 -2.12756,-1.37244 z m -3.87244,-5.25 c -1.1749,-1.65 -1.91119,-3 -1.63619,-3 0.275,0 1.46129,1.35 2.63619,3 1.1749,1.65 1.91119,3 1.63619,3 -0.275,0 -1.46129,-1.35 -2.63619,-3 z m 120,1.5 c 0.68469,-0.825 1.46989,-1.5 1.74489,-1.5 0.275,0 -0.0602,0.675 -0.74489,1.5 -0.68469,0.825 -1.46989,1.5 -1.74489,1.5 -0.275,0 0.0602,-0.675 0.74489,-1.5 z m -61.34549,-2.25 c -0.25494,-0.4125 0.80053,-0.75 2.34549,-0.75 1.54496,0 2.60043,0.3375 2.34549,0.75 -0.25494,0.4125 -1.31041,0.75 -2.34549,0.75 -1.03508,0 -2.09055,-0.3375 -2.34549,-0.75 z m 66.38616,-4.6571 c 1.87909,-2.61659 3.84822,-5.02423 4.37586,-5.35033 0.52763,-0.32609 -0.57811,1.54795 -2.4572,4.16453 -1.87909,2.61659 -3.84822,5.02423 -4.37586,5.35033 -0.52763,0.32609 0.57811,-1.54795 2.4572,-4.16453 z m -72.59954,0.85193 c -1.86402,-1.49339 -1.85176,-1.51185 0.30887,-0.46481 1.2375,0.59969 2.25,1.29951 2.25,1.55516 0,0.76522 -0.51861,0.54424 -2.55887,-1.09035 z m 14.55887,1.12554 c 0,-0.275 0.9,-0.98167 2,-1.57037 1.1,-0.5887 2,-0.84537 2,-0.57037 0,0.275 -0.9,0.98167 -2,1.57037 -1.1,0.5887 -2,0.84537 -2,0.57037 z m -70.71169,-1.82037 c -4.33687,-5.66717 -6.62286,-9.04917 -5.76691,-8.53185 1.18157,0.71412 7.8218,9.78185 7.16318,9.78185 -0.24183,0 -0.87015,-0.5625 -1.39627,-1.25 z m 49.15282,-3.30517 c -1.86402,-1.49339 -1.85176,-1.51185 0.30887,-0.46481 1.2375,0.59969 2.25,1.29951 2.25,1.55516 0,0.76522 -0.51861,0.54424 -2.55887,-1.09035 z m 28.55887,1.12554 c 0,-0.275 0.9,-0.98167 2,-1.57037 1.1,-0.5887 2,-0.84537 2,-0.57037 0,0.275 -0.9,0.98167 -2,1.57037 -1.1,0.5887 -2,0.84537 -2,0.57037 z m -35.55887,-5.12554 c -1.86403,-1.49339 -1.85176,-1.51185 0.30887,-0.46481 1.2375,0.59969 2.25,1.29951 2.25,1.55516 0,0.76522 -0.51861,0.54424 -2.55887,-1.09035 z m 42.55887,1.12554 c 0,-0.275 0.9,-0.98167 2,-1.57037 1.1,-0.5887 2,-0.84537 2,-0.57037 0,0.275 -0.9,0.98167 -2,1.57037 -1.1,0.5887 -2,0.84537 -2,0.57037 z m 51,-3.57037 c 1.1749,-1.65 2.36119,-3 2.63619,-3 0.275,0 -0.46129,1.35 -1.63619,3 -1.1749,1.65 -2.36119,3 -2.63619,3 -0.275,0 0.46129,-1.35 1.63619,-3 z m -99.25,-0.57197 c -3.73844,-2.02814 -3.51088,-2.87286 0.25,-0.92803 1.65,0.85325 3,1.7648 3,2.02568 0,0.6435 -0.10745,0.60721 -3.25,-1.09765 z m -45.75,-2.42803 c -1.1749,-1.65 -1.91119,-3 -1.63619,-3 0.275,0 1.46129,1.35 2.63619,3 1.1749,1.65 1.91119,3 1.63619,3 -0.275,0 -1.46129,-1.35 -2.63619,-3 z m 67.44113,1.44483 c -1.86402,-1.49339 -1.85176,-1.51185 0.30887,-0.46481 1.2375,0.59969 2.25,1.29951 2.25,1.55516 0,0.76522 -0.51861,0.54424 -2.55887,-1.09035 z m 10.55887,1.12554 c 0,-0.275 0.9,-0.98167 2,-1.57037 1.1,-0.5887 2,-0.84537 2,-0.57037 0,0.275 -0.9,0.98167 -2,1.57037 -1.1,0.5887 -2,0.84537 -2,0.57037 z m 23,0 c 0,-0.275 0.9,-0.98167 2,-1.57037 1.1,-0.5887 2,-0.84537 2,-0.57037 0,0.275 -0.9,0.98167 -2,1.57037 -1.1,0.5887 -2,0.84537 -2,0.57037 z m -63.55887,-5.12554 c -1.86403,-1.49339 -1.85176,-1.51185 0.30887,-0.46481 1.2375,0.59969 2.25,1.29951 2.25,1.55516 0,0.76522 -0.51861,0.54424 -2.55887,-1.09035 z m 23,0 c -1.86402,-1.49339 -1.85176,-1.51185 0.30887,-0.46481 1.2375,0.59969 2.25,1.29951 2.25,1.55516 0,0.76522 -0.51861,0.54424 -2.55887,-1.09035 z m 47.55887,1.12554 c 0,-0.275 0.9,-0.98167 2,-1.57037 1.1,-0.5887 2,-0.84537 2,-0.57037 0,0.275 -0.9,0.98167 -2,1.57037 -1.1,0.5887 -2,0.84537 -2,0.57037 z m 41,-1.07037 c 0.68469,-0.825 1.46989,-1.5 1.74489,-1.5 0.275,0 -0.0602,0.675 -0.74489,1.5 -0.68469,0.825 -1.46989,1.5 -1.74489,1.5 -0.275,0 0.0602,-0.675 0.74489,-1.5 z m -153.12756,-3.25 c -1.24387,-1.58606 -1.2085,-1.62143 0.37756,-0.37756 0.9625,0.75485 1.75,1.54235 1.75,1.75 0,0.82304 -0.82119,0.29331 -2.12756,-1.37244 z m 35.87756,0.17803 c -3.73844,-2.02814 -3.51088,-2.87286 0.25,-0.92803 1.65,0.85325 3,1.7648 3,2.02568 0,0.6435 -0.10745,0.60721 -3.25,-1.09765 z m 21.69113,-0.9832 c -1.86403,-1.49339 -1.85176,-1.51185 0.30887,-0.46481 1.2375,0.59969 2.25,1.29951 2.25,1.55516 0,0.76522 -0.51861,0.54424 -2.55887,-1.09035 z m 38.55887,1.12554 c 0,-0.275 0.9,-0.98167 2,-1.57037 1.1,-0.5887 2,-0.84537 2,-0.57037 0,0.275 -0.9,0.98167 -2,1.57037 -1.1,0.5887 -2,0.84537 -2,0.57037 z m 23,0 c 0,-0.275 0.9,-0.98167 2,-1.57037 1.1,-0.5887 2,-0.84537 2,-0.57037 0,0.275 -0.9,0.98167 -2,1.57037 -1.1,0.5887 -2,0.84537 -2,0.57037 z m -123,-5.57037 c -1.1749,-1.65 -1.91119,-3 -1.63619,-3 0.275,0 1.46129,1.35 2.63619,3 1.1749,1.65 1.91119,3 1.63619,3 -0.275,0 -1.46129,-1.35 -2.63619,-3 z m 162,1.5 c 0.68469,-0.825 1.46989,-1.5 1.74489,-1.5 0.275,0 -0.0602,0.675 -0.74489,1.5 -0.68469,0.825 -1.46989,1.5 -1.74489,1.5 -0.275,0 0.0602,-0.675 0.74489,-1.5 z M 595.65542,834.4499 c -1.86403,-1.49339 -1.85176,-1.51185 0.30887,-0.46481 1.2375,0.59969 2.25,1.29951 2.25,1.55516 0,0.76522 -0.51861,0.54424 -2.55887,-1.09035 z m 23,0 c -1.86403,-1.49339 -1.85176,-1.51185 0.30887,-0.46481 1.2375,0.59969 2.25,1.29951 2.25,1.55516 0,0.76522 -0.51861,0.54424 -2.55887,-1.09035 z m 52.55887,1.12554 c 0,-0.275 0.9,-0.98167 2,-1.57037 1.1,-0.5887 2,-0.84537 2,-0.57037 0,0.275 -0.9,0.98167 -2,1.57037 -1.1,0.5887 -2,0.84537 -2,0.57037 z m 23,0 c 0,-0.275 0.9,-0.98167 2,-1.57037 1.1,-0.5887 2,-0.84537 2,-0.57037 0,0.275 -0.9,0.98167 -2,1.57037 -1.1,0.5887 -2,0.84537 -2,0.57037 z m -104.25,-4.14234 c -3.73844,-2.02814 -3.51088,-2.87286 0.25,-0.92803 1.65,0.85325 3,1.7648 3,2.02568 0,0.6435 -0.10745,0.60721 -3.25,-1.09765 z m 140.25,-1.42803 c 1.1749,-1.65 2.36119,-3 2.63619,-3 0.275,0 -0.46129,1.35 -1.63619,3 -1.1749,1.65 -2.36119,3 -2.63619,3 -0.275,0 0.46129,-1.35 1.63619,-3 z m -118.55887,0.44483 c -1.86403,-1.49339 -1.85176,-1.51185 0.30887,-0.46481 1.2375,0.59969 2.25,1.29951 2.25,1.55516 0,0.76522 -0.51861,0.54424 -2.55887,-1.09035 z m 66.55887,1.12554 c 0,-0.275 0.9,-0.98167 2,-1.57037 1.1,-0.5887 2,-0.84537 2,-0.57037 0,0.275 -0.9,0.98167 -2,1.57037 -1.1,0.5887 -2,0.84537 -2,0.57037 z m 23,0 c 0,-0.275 0.9,-0.98167 2,-1.57037 1.1,-0.5887 2,-0.84537 2,-0.57037 0,0.275 -0.9,0.98167 -2,1.57037 -1.1,0.5887 -2,0.84537 -2,0.57037 z m -141.12756,-3.32037 c -1.24387,-1.58606 -1.2085,-1.62143 0.37756,-0.37756 0.9625,0.75485 1.75,1.54235 1.75,1.75 0,0.82304 -0.82119,0.29331 -2.12756,-1.37244 z m 21.56869,-1.80517 c -1.86403,-1.49339 -1.85176,-1.51185 0.30887,-0.46481 1.2375,0.59969 2.25,1.29951 2.25,1.55516 0,0.76522 -0.51861,0.54424 -2.55887,-1.09035 z m 23,0 c -1.86403,-1.49339 -1.85176,-1.51185 0.30887,-0.46481 1.2375,0.59969 2.25,1.29951 2.25,1.55516 0,0.76522 -0.51861,0.54424 -2.55887,-1.09035 z m 80.55887,1.12554 c 0,-0.275 0.9,-0.98167 2,-1.57037 1.1,-0.5887 2,-0.84537 2,-0.57037 0,0.275 -0.9,0.98167 -2,1.57037 -1.1,0.5887 -2,0.84537 -2,0.57037 z m 23,0 c 0,-0.275 0.9,-0.98167 2,-1.57037 1.1,-0.5887 2,-0.84537 2,-0.57037 0,0.275 -0.9,0.98167 -2,1.57037 -1.1,0.5887 -2,0.84537 -2,0.57037 z m -152,-4.57037 c -1.1749,-1.65 -1.91119,-3 -1.63619,-3 0.275,0 1.46129,1.35 2.63619,3 1.1749,1.65 1.91119,3 1.63619,3 -0.275,0 -1.46129,-1.35 -2.63619,-3 z m 178,1.5 c 0.68469,-0.825 1.46989,-1.5 1.74489,-1.5 0.275,0 -0.0602,0.675 -0.74489,1.5 -0.68469,0.825 -1.46989,1.5 -1.74489,1.5 -0.275,0 0.0602,-0.675 0.74489,-1.5 z M 576.65542,823.4499 c -1.86403,-1.49339 -1.85176,-1.51185 0.30887,-0.46481 1.2375,0.59969 2.25,1.29951 2.25,1.55516 0,0.76522 -0.51861,0.54424 -2.55887,-1.09035 z m 21,-1 c -1.86403,-1.49339 -1.85176,-1.51185 0.30887,-0.46481 1.2375,0.59969 2.25,1.29951 2.25,1.55516 0,0.76522 -0.51861,0.54424 -2.55887,-1.09035 z m 94.55887,1.12554 c 0,-0.275 0.9,-0.98167 2,-1.57037 1.1,-0.5887 2,-0.84537 2,-0.57037 0,0.275 -0.9,0.98167 -2,1.57037 -1.1,0.5887 -2,0.84537 -2,0.57037 z m 23,0 c 0,-0.275 0.9,-0.98167 2,-1.57037 1.1,-0.5887 2,-0.84537 2,-0.57037 0,0.275 -0.9,0.98167 -2,1.57037 -1.1,0.5887 -2,0.84537 -2,0.57037 z m 23,-4.57037 c 1.1749,-1.65 2.36119,-3 2.63619,-3 0.275,0 -0.46129,1.35 -1.63619,3 -1.1749,1.65 -2.36119,3 -2.63619,3 -0.275,0 0.46129,-1.35 1.63619,-3 z M 567.65542,818.4499 c -1.86403,-1.49339 -1.85176,-1.51185 0.30887,-0.46481 1.2375,0.59969 2.25,1.29951 2.25,1.55516 0,0.76522 -0.51861,0.54424 -2.55887,-1.09035 z m 23,0 c -1.86403,-1.49339 -1.85176,-1.51185 0.30887,-0.46481 1.2375,0.59969 2.25,1.29951 2.25,1.55516 0,0.76522 -0.51861,0.54424 -2.55887,-1.09035 z m 131.55887,1.12554 c 0,-0.275 0.9,-0.98167 2,-1.57037 1.1,-0.5887 2,-0.84537 2,-0.57037 0,0.275 -0.9,0.98167 -2,1.57037 -1.1,0.5887 -2,0.84537 -2,0.57037 z m -171,-3.57037 c -1.1749,-1.65 -1.91119,-3 -1.63619,-3 0.275,0 1.46129,1.35 2.63619,3 1.1749,1.65 1.91119,3 1.63619,3 -0.275,0 -1.46129,-1.35 -2.63619,-3 z m 10.75,-0.57197 c -3.73844,-2.02814 -3.51088,-2.87286 0.25,-0.92803 1.65,0.85325 3,1.7648 3,2.02568 0,0.6435 -0.10745,0.60721 -3.25,-1.09765 z m 21.69113,-0.9832 c -1.86403,-1.49339 -1.85176,-1.51185 0.30887,-0.46481 1.2375,0.59969 2.25,1.29951 2.25,1.55516 0,0.76522 -0.51861,0.54424 -2.55887,-1.09035 z m 122.55887,1.12554 c 0,-0.275 0.9,-0.98167 2,-1.57037 1.1,-0.5887 2,-0.84537 2,-0.57037 0,0.275 -0.9,0.98167 -2,1.57037 -1.1,0.5887 -2,0.84537 -2,0.57037 z m 23,0 c 0,-0.275 0.9,-0.98167 2,-1.57037 1.1,-0.5887 2,-0.84537 2,-0.57037 0,0.275 -0.9,0.98167 -2,1.57037 -1.1,0.5887 -2,0.84537 -2,0.57037 z m 13,-2.07037 c 0.68469,-0.825 1.46989,-1.5 1.74489,-1.5 0.275,0 -0.0602,0.675 -0.74489,1.5 -0.68469,0.825 -1.46989,1.5 -1.74489,1.5 -0.275,0 0.0602,-0.675 0.74489,-1.5 z m -195.12756,-3.25 c -1.24387,-1.58606 -1.2085,-1.62143 0.37756,-0.37756 0.9625,0.75485 1.75,1.54235 1.75,1.75 0,0.82304 -0.82119,0.29331 -2.12756,-1.37244 z m 6.56869,0.19483 c -1.86403,-1.49339 -1.85176,-1.51185 0.30887,-0.46481 1.2375,0.59969 2.25,1.29951 2.25,1.55516 0,0.76522 -0.51861,0.54424 -2.55887,-1.09035 z m 23,0 c -1.86403,-1.49339 -1.85176,-1.51185 0.30887,-0.46481 1.2375,0.59969 2.25,1.29951 2.25,1.55516 0,0.76522 -0.51861,0.54424 -2.55887,-1.09035 z m 136.55887,1.12554 c 0,-0.275 0.9,-0.98167 2,-1.57037 1.1,-0.5887 2,-0.84537 2,-0.57037 0,0.275 -0.9,0.98167 -2,1.57037 -1.1,0.5887 -2,0.84537 -2,0.57037 z m 23,0 c 0,-0.275 0.9,-0.98167 2,-1.57037 1.1,-0.5887 2,-0.84537 2,-0.57037 0,0.275 -0.9,0.98167 -2,1.57037 -1.1,0.5887 -2,0.84537 -2,0.57037 z M 548.65542,807.4499 c -1.86403,-1.49339 -1.85176,-1.51185 0.30887,-0.46481 1.2375,0.59969 2.25,1.29951 2.25,1.55516 0,0.76522 -0.51861,0.54424 -2.55887,-1.09035 z m -4.42908,-1.42232 c -0.83015,-1.55114 -0.76587,-1.86527 0.29814,-1.45697 0.74606,0.28629 1.35648,1.17616 1.35648,1.97749 0,1.95904 -0.39393,1.83511 -1.65462,-0.52052 z m 25.42908,0.42232 c -1.86403,-1.49339 -1.85176,-1.51185 0.30887,-0.46481 1.2375,0.59969 2.25,1.29951 2.25,1.55516 0,0.76522 -0.51861,0.54424 -2.55887,-1.09035 z m 150.55887,1.12554 c 0,-0.275 0.9,-0.98167 2,-1.57037 1.1,-0.5887 2,-0.84537 2,-0.57037 0,0.275 -0.9,0.98167 -2,1.57037 -1.1,0.5887 -2,0.84537 -2,0.57037 z m 26.57484,-1.44927 c -0.30984,-0.50134 0.10906,-1.16956 0.9309,-1.48493 0.82184,-0.31537 1.49426,-0.16408 1.49426,0.3362 0,1.35555 -1.7771,2.19731 -2.42516,1.14873 z M 562.65542,802.4499 c -1.86403,-1.49339 -1.85176,-1.51185 0.30887,-0.46481 1.2375,0.59969 2.25,1.29951 2.25,1.55516 0,0.76522 -0.51861,0.54424 -2.55887,-1.09035 z m 164.55887,1.12554 c 0,-0.275 0.9,-0.98167 2,-1.57037 1.1,-0.5887 2,-0.84537 2,-0.57037 0,0.275 -0.9,0.98167 -2,1.57037 -1.1,0.5887 -2,0.84537 -2,0.57037 z M 555.65542,798.4499 c -1.86403,-1.49339 -1.85176,-1.51185 0.30887,-0.46481 1.2375,0.59969 2.25,1.29951 2.25,1.55516 0,0.76522 -0.51861,0.54424 -2.55887,-1.09035 z m 178.55887,1.10653 c 0,-0.275 1.35,-1.19811 3,-2.05136 1.65,-0.85325 3,-1.32636 3,-1.05136 0,0.275 -1.35,1.19811 -3,2.05136 -1.65,0.85325 -3,1.32636 -3,1.05136 z M 548.65542,794.4499 c -1.86403,-1.49339 -1.85176,-1.51185 0.30887,-0.46481 1.2375,0.59969 2.25,1.29951 2.25,1.55516 0,0.76522 -0.51861,0.54424 -2.55887,-1.09035 z m 192.55887,1.10653 c 0,-0.275 1.35,-1.19811 3,-2.05136 1.65,-0.85325 3,-1.32636 3,-1.05136 0,0.275 -1.35,1.19811 -3,2.05136 -1.65,0.85325 -3,1.32636 -3,1.05136 z m -198,-4.99234 c 0,-0.79254 0.40803,-1.69316 0.90674,-2.00138 0.49871,-0.30822 0.67122,0.34022 0.38337,1.44098 -0.61061,2.33499 -1.29011,2.63015 -1.29011,0.5604 z m 204.73121,-0.47886 c -0.43497,-1.66335 -0.30483,-2.05378 0.43724,-1.31171 0.5811,0.5811 0.85979,1.64682 0.61931,2.36826 -0.24965,0.74895 -0.70294,0.29565 -1.05655,-1.05655 z m -2.73121,-5.08016 c -0.5887,-1.1 -0.84537,-2 -0.57037,-2 0.275,0 0.98167,0.9 1.57037,2 0.5887,1.1 0.84537,2 0.57037,2 -0.275,0 -0.98167,-0.9 -1.57037,-2 z m -197.12844,-2.5 c 0.54004,-1.1 1.71469,-2.9 2.61033,-4 1.62844,-2 1.62844,-2 0.64655,0 -0.54004,1.1 -1.71469,2.9 -2.61033,4 -1.62844,2 -1.62844,2 -0.64655,0 z m 190.12844,-8.5 c -0.5887,-1.1 -0.84537,-2 -0.57037,-2 0.275,0 0.98167,0.9 1.57037,2 0.5887,1.1 0.84537,2 0.57037,2 -0.275,0 -0.98167,-0.9 -1.57037,-2 z m -183,-3 c 0.5887,-1.1 1.29537,-2 1.57037,-2 0.275,0 0.0183,0.9 -0.57037,2 -0.5887,1.1 -1.29537,2 -1.57037,2 -0.275,0 -0.0183,-0.9 0.57037,-2 z m 176,-8 c -0.5887,-1.1 -0.84537,-2 -0.57037,-2 0.275,0 0.98167,0.9 1.57037,2 0.5887,1.1 0.84537,2 0.57037,2 -0.275,0 -0.98167,-0.9 -1.57037,-2 z m -169,-3 c 0.5887,-1.1 1.29537,-2 1.57037,-2 0.275,0 0.0183,0.9 -0.57037,2 -0.5887,1.1 -1.29537,2 -1.57037,2 -0.275,0 -0.0183,-0.9 0.57037,-2 z m 163.77882,-5.25 c -0.79817,-1.2375 -2.25332,-3.6 -3.23368,-5.25 l -1.78248,-3 2.01172,2.43395 c 2.37669,2.87551 5.52804,8.06605 4.89717,8.06605 -0.24284,0 -1.09457,-1.0125 -1.89273,-2.25 z m -156.90726,-5.25 c 0.54004,-1.1 1.71469,-2.9 2.61033,-4 1.62844,-2 1.62844,-2 0.64655,0 -0.54004,1.1 -1.71469,2.9 -2.61033,4 -1.62844,2 -1.62844,2 -0.64655,0 z m 148.12844,-8.5 c -0.5887,-1.1 -0.84537,-2 -0.57037,-2 0.275,0 0.98167,0.9 1.57037,2 0.5887,1.1 0.84537,2 0.57037,2 -0.275,0 -0.98167,-0.9 -1.57037,-2 z m -141,-3 c 0.5887,-1.1 1.29537,-2 1.57037,-2 0.275,0 0.0183,0.9 -0.57037,2 -0.5887,1.1 -1.29537,2 -1.57037,2 -0.275,0 -0.0183,-0.9 0.57037,-2 z m 135.79276,-5.25 c -2.39445,-3.74847 -3.03986,-5.36993 -1.29364,-3.25 1.95165,2.36933 3.74528,5.5 3.15107,5.5 -0.23109,0 -1.06694,-1.0125 -1.85743,-2.25 z m -128.9212,-5.25 c 0.54004,-1.1 1.71469,-2.9 2.61033,-4 1.62844,-2 1.62844,-2 0.64655,0 -0.54004,1.1 -1.71469,2.9 -2.61033,4 -1.62844,2 -1.62844,2 -0.64655,0 z m 120.12844,-8.5 c -0.5887,-1.1 -0.84537,-2 -0.57037,-2 0.275,0 0.98167,0.9 1.57037,2 0.5887,1.1 0.84537,2 0.57037,2 -0.275,0 -0.98167,-0.9 -1.57037,-2 z m -113,-3 c 0.5887,-1.1 1.29537,-2 1.57037,-2 0.275,0 0.0183,0.9 -0.57037,2 -0.5887,1.1 -1.29537,2 -1.57037,2 -0.275,0 -0.0183,-0.9 0.57037,-2 z m 106,-8 c -0.5887,-1.1 -0.84537,-2 -0.57037,-2 0.275,0 0.98167,0.9 1.57037,2 0.5887,1.1 0.84537,2 0.57037,2 -0.275,0 -0.98167,-0.9 -1.57037,-2 z m -99,-3 c 0.5887,-1.1 1.29537,-2 1.57037,-2 0.275,0 0.0183,0.9 -0.57037,2 -0.5887,1.1 -1.29537,2 -1.57037,2 -0.275,0 -0.0183,-0.9 0.57037,-2 z m 93.79276,-5.25 c -2.39445,-3.74847 -3.03986,-5.36993 -1.29364,-3.25 1.95165,2.36933 3.74528,5.5 3.15107,5.5 -0.23109,0 -1.06694,-1.0125 -1.85743,-2.25 z m -86.79276,-5.75 c 0.5887,-1.1 1.29537,-2 1.57037,-2 0.275,0 0.0183,0.9 -0.57037,2 -0.5887,1.1 -1.29537,2 -1.57037,2 -0.275,0 -0.0183,-0.9 0.57037,-2 z m 79.79276,-5.25 c -2.39445,-3.74847 -3.03986,-5.36993 -1.29364,-3.25 1.95165,2.36933 3.74528,5.5 3.15107,5.5 -0.23109,0 -1.06694,-1.0125 -1.85743,-2.25 z m -72.9212,-5.25 c 0.54004,-1.1 1.71469,-2.9 2.61033,-4 1.62844,-2 1.62844,-2 0.64655,0 -0.54004,1.1 -1.71469,2.9 -2.61033,4 -1.62844,2 -1.62844,2 -0.64655,0 z m 65.9212,-5.75 c -2.39445,-3.74847 -3.03986,-5.36993 -1.29364,-3.25 1.95165,2.36933 3.74528,5.5 3.15107,5.5 -0.23109,0 -1.06694,-1.0125 -1.85743,-2.25 z m -58.79276,-5.75 c 0.5887,-1.1 1.29537,-2 1.57037,-2 0.275,0 0.0183,0.9 -0.57037,2 -0.5887,1.1 -1.29537,2 -1.57037,2 -0.275,0 -0.0183,-0.9 0.57037,-2 z m 51.79276,-5.25 c -2.39445,-3.74847 -3.03986,-5.36993 -1.29364,-3.25 1.95165,2.36933 3.74528,5.5 3.15107,5.5 -0.23109,0 -1.06694,-1.0125 -1.85743,-2.25 z m -44.9212,-5.25 c 0.54004,-1.1 1.71469,-2.9 2.61033,-4 1.62844,-2 1.62844,-2 0.64655,0 -0.54004,1.1 -1.71469,2.9 -2.61033,4 -1.62844,2 -1.62844,2 -0.64655,0 z m 37.9212,-5.75 c -2.39445,-3.74847 -3.03986,-5.36993 -1.29364,-3.25 1.95165,2.36933 3.74528,5.5 3.15107,5.5 -0.23109,0 -1.06694,-1.0125 -1.85743,-2.25 z m -30.79276,-5.75 c 0.5887,-1.1 1.29537,-2 1.57037,-2 0.275,0 0.0183,0.9 -0.57037,2 -0.5887,1.1 -1.29537,2 -1.57037,2 -0.275,0 -0.0183,-0.9 0.57037,-2 z m 4.87156,-7.5 c 0.54004,-1.1 1.71469,-2.9 2.61033,-4 1.62844,-2 1.62844,-2 0.64655,0 -0.54004,1.1 -1.71469,2.9 -2.61033,4 -1.62844,2 -1.62844,2 -0.64655,0 z m 17.12844,-0.5 c -0.5887,-1.1 -0.84537,-2 -0.57037,-2 0.275,0 0.98167,0.9 1.57037,2 0.5887,1.1 0.84537,2 0.57037,2 -0.275,0 -0.98167,-0.9 -1.57037,-2 z m -4.95827,-7.92202 c -0.56575,-1.05712 -1.81104,-2.70444 -2.76732,-3.66072 -0.95628,-0.95628 -1.16116,-1.54618 -0.45529,-1.31089 1.31841,0.43947 5.82576,6.89363 4.81427,6.89363 -0.30966,0 -1.02591,-0.86491 -1.59166,-1.92202 z"
         id="path7048"
         inkscape:connector-curvature="0" />
    </g>
  </g>
</svg>
